<?xml version="1.0" standalone="no"?>
<!DOCTYPE svg PUBLIC "-//W3C//DTD SVG 20010904//EN"
 "http://www.w3.org/TR/2001/REC-SVG-20010904/DTD/svg10.dtd">
<svg version="1.0" xmlns="http://www.w3.org/2000/svg"
 width="500.000000pt" height="500.000000pt" viewBox="0 0 500.000000 500.000000"
 preserveAspectRatio="xMidYMid meet">

<g transform="translate(0.000000,500.000000) scale(0.100000,-0.100000)"
fill="#000000" stroke="none">
<path d="M0 2500 l0 -2500 2500 0 2500 0 0 2500 0 2500 -2500 0 -2500 0 0
-2500z m2780 1113 c118 -49 235 -166 282 -283 30 -75 37 -244 13 -327 -43
-150 -174 -284 -324 -330 -31 -10 -100 -43 -153 -75 l-98 -57 0 152 0 152 73
1 c96 1 165 25 225 79 68 62 97 128 96 225 0 61 -5 84 -26 125 -31 60 -86 114
-148 146 -44 23 -53 24 -336 27 l-291 3 -94 95 -94 95 410 -3 c399 -3 411 -4
465 -25z m-109 -401 c34 -38 37 -74 9 -119 -27 -45 -73 -55 -241 -51 l-139 3
0 -310 0 -311 -62 -36 c-35 -19 -80 -46 -100 -58 l-38 -22 0 471 0 472 271 -3
271 -3 29 -33z m-613 -1128 c19 -13 22 -24 22 -84 0 -78 -10 -90 -74 -90 -36
0 -36 0 -36 -45 l0 -45 -40 0 -40 0 0 140 0 140 73 0 c49 0 80 -5 95 -16z
m280 -16 c3 -27 2 -28 -42 -28 -42 0 -46 -2 -46 -25 0 -22 4 -25 35 -25 32 0
35 -2 35 -30 0 -28 -3 -30 -35 -30 -32 0 -35 -2 -35 -30 0 -29 2 -30 45 -30
41 0 45 -2 45 -25 0 -25 -1 -25 -85 -25 l-85 0 0 140 0 141 83 -3 c81 -3 82
-3 85 -30z m252 2 c0 -25 -4 -30 -25 -30 l-25 0 0 -110 0 -110 -40 0 -40 0 0
110 0 110 -25 0 c-21 0 -25 5 -25 30 l0 30 90 0 90 0 0 -30z m240 0 c0 -29 -2
-30 -45 -30 -41 0 -45 -2 -45 -25 0 -22 4 -25 40 -25 38 0 40 -2 40 -30 0 -28
-2 -30 -41 -30 -38 0 -40 -1 -37 -27 3 -26 7 -28 51 -31 42 -3 47 -5 47 -28 0
-24 -2 -24 -85 -24 l-85 0 0 140 0 140 80 0 80 0 0 -30z m258 14 c19 -13 22
-24 22 -76 0 -42 -5 -67 -16 -79 -14 -16 -14 -21 5 -58 12 -22 21 -43 21 -46
0 -3 -17 -5 -38 -5 -35 0 -40 4 -59 43 l-22 42 0 -42 -1 -43 -40 0 -40 0 0
140 0 140 73 0 c49 0 80 -5 95 -16z m-428 -499 c0 -8 -7 -15 -15 -15 -16 0
-20 12 -8 23 11 12 23 8 23 -8z m-546 -11 c19 -18 19 -17 5 -47 -12 -26 -47
-47 -79 -47 -19 0 -24 -14 -23 -57 1 -8 -12 -13 -30 -13 -26 0 -29 2 -15 13
18 14 52 132 44 153 -8 21 77 19 98 -2z m76 -46 c0 -9 3 -9 12 0 17 17 38 15
38 -3 0 -18 -17 -20 -23 -2 -4 14 -47 -64 -47 -87 0 -16 -18 -31 -26 -23 -3 3
2 29 10 58 19 64 19 69 1 45 -16 -21 -19 -18 -9 8 7 19 44 22 44 4z m158 -10
c-2 -12 -16 -28 -35 -37 -23 -11 -33 -23 -33 -40 0 -20 3 -22 28 -17 20 5 23
4 12 -4 -44 -29 -80 2 -61 53 22 58 97 96 89 45z m84 4 c3 -11 -1 -30 -8 -43
-7 -13 -13 -32 -14 -41 0 -17 -18 -34 -26 -25 -3 3 2 29 10 58 19 64 19 69 1
45 -16 -21 -19 -18 -9 8 8 22 41 20 46 -2z m58 1 c0 -15 1 -15 18 0 40 37 58
16 37 -43 -19 -53 -19 -71 0 -46 8 11 15 15 15 9 0 -17 -28 -36 -45 -30 -13 5
-13 11 0 48 8 23 15 49 15 58 -1 26 -38 -24 -51 -70 -7 -21 -18 -39 -26 -39
-16 0 -16 -5 2 54 19 62 19 70 -1 62 -8 -3 -12 -2 -9 4 10 17 45 11 45 -7z
m160 8 c0 -5 -7 -28 -15 -51 -18 -51 -19 -64 -3 -54 7 4 8 3 4 -4 -9 -15 -46
-16 -46 -2 0 6 7 27 15 47 21 49 20 73 -1 47 -14 -18 -15 -18 -4 4 10 21 50
32 50 13z m76 -23 c-3 -18 -9 -45 -12 -60 -4 -18 -2 -28 5 -28 12 0 51 71 51
94 0 16 18 31 26 23 3 -3 -2 -29 -10 -58 -13 -42 -13 -54 -4 -61 9 -5 6 -8 -9
-8 -13 0 -23 5 -23 12 0 9 -3 9 -12 0 -14 -14 -44 -16 -52 -3 -3 5 1 28 9 51
19 53 19 71 0 46 -8 -11 -15 -15 -15 -10 0 15 22 34 38 34 11 0 13 -8 8 -32z
m164 20 c0 -9 3 -9 12 0 18 18 48 15 48 -5 1 -17 1 -17 11 0 5 9 19 17 31 17
18 0 20 -4 15 -37 -3 -21 -9 -49 -13 -62 -5 -18 -4 -22 6 -16 9 5 11 4 6 -3
-8 -14 -46 -16 -46 -4 0 5 7 30 16 56 9 26 13 50 10 53 -9 9 -33 -26 -47 -67
-25 -76 -48 -66 -25 11 9 29 14 54 12 57 -3 2 -15 -3 -28 -12 -12 -9 -19 -16
-16 -16 4 0 0 -20 -9 -45 -8 -25 -19 -45 -24 -45 -12 0 -11 17 6 73 8 26 10
47 5 47 -6 0 -10 -5 -10 -12 0 -6 -3 -9 -6 -5 -3 3 -3 10 1 16 9 15 45 14 45
-1z"/>
<path d="M1970 2005 c0 -28 4 -35 20 -35 16 0 20 7 20 35 0 28 -4 35 -20 35
-16 0 -20 -7 -20 -35z"/>
<path d="M3000 2005 c0 -24 5 -35 15 -35 10 0 15 11 15 35 0 24 -5 35 -15 35
-10 0 -15 -11 -15 -35z"/>
<path d="M2041 1543 c-14 -51 -14 -53 9 -53 23 0 53 41 48 67 -2 10 -13 19
-25 21 -18 3 -24 -4 -32 -35z"/>
<path d="M2300 1509 c-7 -11 -9 -23 -6 -26 8 -9 36 17 36 33 0 21 -18 17 -30
-7z"/>
</g>
</svg>
